<?xml version="1.0" standalone="no"?>
<!DOCTYPE svg PUBLIC "-//W3C//DTD SVG 20010904//EN"
 "http://www.w3.org/TR/2001/REC-SVG-20010904/DTD/svg10.dtd">
<svg version="1.0" xmlns="http://www.w3.org/2000/svg"
 width="640.000000pt" height="1280.000000pt" viewBox="0 0 640.000000 1280.000000"
 preserveAspectRatio="xMidYMid meet">
<metadata>
Created by potrace 1.15, written by Peter Selinger 2001-2017
</metadata>
<g transform="translate(0.000000,1280.000000) scale(0.100000,-0.100000)"
fill="#000000" stroke="none">
<path d="M1761 12791 c-15 -4 -28 -18 -34 -36 -6 -17 -18 -36 -29 -43 -10 -7
-18 -22 -18 -34 0 -18 -4 -19 -34 -14 -34 7 -35 6 -115 -101 -44 -59 -83 -122
-87 -139 -3 -17 -1 -54 4 -82 9 -51 9 -52 -27 -91 -20 -21 -53 -44 -74 -51
-50 -16 -67 -35 -67 -75 0 -24 -9 -45 -29 -67 -16 -19 -32 -50 -36 -70 -4 -20
-18 -46 -32 -58 -13 -11 -29 -34 -34 -50 -6 -15 -18 -30 -28 -33 -10 -2 -33
-38 -55 -83 -75 -160 -66 -148 -123 -159 -62 -12 -95 -40 -97 -84 -1 -16 -7
-36 -14 -43 -7 -7 -12 -39 -12 -78 0 -65 -1 -67 -44 -109 -36 -35 -45 -51 -50
-92 -5 -33 -16 -60 -35 -82 -15 -17 -43 -59 -61 -92 -19 -33 -79 -113 -134
-179 -70 -84 -97 -122 -90 -132 5 -7 89 -81 186 -164 98 -83 178 -155 178
-158 0 -4 -14 -34 -30 -66 -21 -40 -30 -74 -30 -105 0 -27 -8 -63 -20 -86 -23
-45 -20 -95 10 -155 16 -32 17 -39 4 -69 -19 -45 -18 -61 8 -88 19 -20 20 -25
8 -33 -8 -5 -31 -10 -51 -10 -40 0 -54 -11 -64 -53 -6 -24 -2 -33 28 -61 45
-41 41 -67 -15 -89 -49 -20 -46 -37 10 -57 33 -11 42 -19 42 -37 0 -16 6 -23
20 -23 23 0 25 -17 5 -44 -21 -27 -20 -102 1 -110 28 -11 46 -6 76 19 17 15
42 25 60 25 105 0 263 -54 345 -118 37 -28 129 -79 185 -101 46 -17 77 -120
48 -156 -7 -8 -25 -15 -39 -15 -15 0 -36 -6 -46 -14 -18 -13 -18 -16 -2 -84
21 -88 22 -207 1 -328 -20 -117 -16 -130 26 -106 31 17 31 17 56 -13 21 -26
25 -38 21 -82 -4 -64 -11 -72 -37 -48 -19 17 -20 17 -37 -15 -69 -126 -114
-164 -197 -165 -53 0 -154 27 -194 53 -36 23 -40 4 -4 -24 18 -14 32 -33 32
-43 0 -25 26 -46 92 -75 87 -39 106 -83 73 -176 -8 -23 -15 -52 -15 -64 0 -12
-9 -39 -20 -61 -14 -28 -17 -41 -8 -46 6 -4 8 -14 5 -23 -7 -18 -27 -22 -27
-5 0 6 -16 -3 -35 -20 -19 -16 -53 -36 -75 -42 -31 -9 -40 -17 -40 -34 0 -12
-11 -45 -25 -73 -14 -29 -25 -56 -25 -61 0 -16 -30 -41 -50 -41 -10 0 -34 17
-54 37 -49 50 -46 25 6 -48 l42 -60 -3 -102 c-3 -116 4 -140 50 -185 38 -37
49 -40 56 -12 7 28 33 25 79 -9 48 -34 88 -81 114 -132 21 -41 27 -122 11
-161 -5 -13 -12 -35 -15 -49 -3 -14 -28 -51 -55 -82 -51 -58 -71 -105 -71
-167 0 -50 -23 -79 -71 -86 -44 -7 -46 -13 -19 -72 42 -93 49 -247 14 -344
-12 -36 -12 -38 7 -38 19 0 19 -1 5 -22 -47 -67 3 -157 126 -229 84 -50 106
-76 108 -137 3 -63 2 -113 -4 -137 -2 -11 -5 -26 -5 -32 -1 -7 -18 -21 -38
-32 -21 -10 -50 -32 -65 -48 -25 -26 -31 -28 -85 -23 -63 5 -64 7 -48 77 7 29
5 33 -19 39 -41 10 -56 -1 -56 -41 0 -36 -28 -76 -60 -87 -10 -3 -15 -26 -18
-76 -4 -66 -2 -75 22 -106 14 -19 26 -39 26 -44 0 -17 -71 -73 -99 -78 l-28
-6 -13 -166 c-14 -181 -31 -255 -80 -339 -21 -36 -43 -59 -70 -73 -37 -19 -40
-24 -40 -61 0 -26 5 -42 15 -45 8 -4 15 -13 15 -20 0 -8 18 -38 39 -67 22 -29
58 -91 82 -140 34 -70 44 -105 52 -178 11 -100 24 -106 29 -14 3 53 5 60 25
63 24 4 160 -24 180 -36 12 -8 21 -197 11 -208 -3 -2 -32 9 -64 26 -35 19 -60
27 -62 20 -2 -6 29 -50 70 -97 40 -48 85 -104 100 -124 15 -21 40 -44 55 -51
24 -12 28 -19 27 -54 0 -25 -9 -51 -23 -70 -20 -28 -22 -38 -17 -135 2 -57 8
-119 12 -137 6 -29 2 -37 -29 -67 -50 -49 -97 -75 -134 -75 -28 0 -35 5 -49
38 -9 20 -19 66 -24 102 -10 89 -48 163 -124 243 -89 93 -161 121 -201 77 -10
-11 -26 -22 -36 -25 -11 -4 -19 -10 -19 -15 0 -5 25 -35 57 -67 72 -74 199
-266 207 -315 4 -22 2 -47 -4 -59 -17 -30 -6 -60 39 -105 22 -21 58 -64 80
-94 63 -85 189 -207 261 -255 36 -23 110 -66 165 -95 55 -30 128 -76 162 -103
35 -27 89 -62 120 -78 32 -16 70 -38 85 -50 16 -14 46 -24 78 -27 38 -3 55
-10 65 -26 8 -11 46 -37 85 -56 66 -33 70 -37 65 -63 -3 -20 0 -29 13 -33 37
-12 47 -23 52 -58 5 -39 23 -50 28 -16 2 11 9 20 16 20 22 0 39 -28 32 -54 -4
-15 0 -28 10 -37 13 -11 21 -10 46 4 49 28 92 22 138 -19 41 -37 96 -122 120
-184 8 -19 24 -49 37 -66 13 -17 23 -40 23 -50 0 -11 20 -46 45 -79 52 -69 57
-101 20 -115 -14 -5 -32 -23 -39 -40 -7 -17 -15 -27 -19 -23 -4 3 -7 -6 -7
-21 0 -24 3 -27 20 -23 12 3 33 -1 48 -9 15 -8 34 -14 42 -14 8 0 26 -12 40
-26 42 -43 99 -74 136 -74 46 0 63 -32 46 -89 -7 -21 -12 -55 -12 -75 0 -20
-7 -53 -15 -73 -8 -19 -15 -58 -15 -85 0 -42 -4 -53 -31 -78 -20 -18 -34 -42
-38 -67 -10 -54 -5 -65 25 -51 13 6 27 8 31 5 15 -15 5 -69 -20 -106 -32 -48
-37 -108 -10 -118 30 -11 69 -7 93 10 31 21 35 21 57 -2 10 -10 39 -21 67 -25
27 -3 57 -12 65 -20 9 -7 32 -16 51 -20 23 -4 48 -21 75 -50 34 -37 48 -45 90
-51 28 -3 79 -15 115 -25 112 -34 148 -22 137 44 -4 23 -1 39 8 46 8 6 15 23
17 37 5 39 22 38 67 -3 l41 -36 0 42 c0 34 8 53 36 90 22 29 47 50 63 53 14 3
39 22 54 41 l28 36 -41 53 c-46 61 -48 74 -20 110 26 32 25 42 -5 81 -30 39
-31 57 -6 80 18 16 22 16 49 2 16 -8 48 -18 71 -22 41 -7 73 -30 102 -73 23
-36 58 -22 106 41 34 45 41 63 45 115 5 48 3 65 -9 75 -28 23 -70 93 -77 128
-3 19 -17 46 -30 60 -13 14 -29 42 -36 63 -6 21 -22 50 -34 65 -35 41 -46 67
-46 105 0 23 -11 48 -32 77 -52 68 -67 93 -62 102 3 4 53 8 112 8 124 0 146 9
157 67 3 21 17 57 31 80 17 30 22 50 18 72 -9 43 17 78 79 107 63 29 88 30
112 4 27 -30 58 -25 99 17 l36 37 27 -26 c55 -51 94 -58 193 -37 40 8 57 19
81 49 29 36 37 39 125 56 l94 18 0 71 c0 60 4 76 25 105 32 43 31 55 -1 84
-23 19 -25 25 -15 43 6 12 8 35 5 51 -6 28 -2 32 32 50 71 37 88 64 92 147 4
66 1 80 -22 119 -30 51 -28 62 25 126 21 25 39 56 41 69 2 18 13 28 43 38 54
18 59 26 47 62 -11 32 -6 41 79 141 18 21 20 32 13 75 -4 28 -8 86 -9 130 -2
89 -1 90 79 130 33 17 43 29 57 71 34 101 47 111 101 73 26 -19 34 -20 68 -10
57 17 84 13 110 -14 40 -42 73 -34 120 30 40 54 41 58 35 110 -7 52 -6 54 23
69 38 19 82 72 82 97 0 25 56 59 97 59 44 0 57 25 44 92 -7 40 -6 57 5 73 10
15 12 29 6 46 -7 19 -5 26 12 34 17 9 20 18 16 45 -5 39 -5 91 1 162 3 41 0
51 -29 85 -18 21 -39 54 -48 73 -8 19 -45 63 -81 96 -61 56 -67 66 -72 110 -5
41 -10 50 -29 52 -12 2 -27 13 -33 24 -10 19 -7 25 20 47 l31 26 0 234 c0 218
-1 236 -20 267 -12 18 -29 36 -39 39 -10 3 -26 14 -36 25 -21 24 -59 26 -99 5
-42 -22 -61 -19 -115 21 -28 19 -65 38 -83 41 -33 5 -35 3 -82 -71 -53 -84
-74 -96 -136 -77 -20 6 -56 11 -80 11 -90 0 -85 -8 -204 394 -59 198 -109 362
-111 364 -1 2 -38 9 -82 17 -101 18 -126 28 -152 61 -27 34 -27 77 1 114 l21
29 -27 36 c-15 19 -32 50 -38 68 -6 17 -24 48 -40 68 -15 20 -28 44 -28 52 0
9 -18 26 -41 39 -34 19 -44 32 -60 78 -10 30 -18 76 -19 101 0 26 -7 63 -15
82 -8 20 -15 67 -15 104 0 46 -8 90 -25 138 -17 47 -23 81 -19 103 7 37 14 39
39 12 25 -28 31 -26 49 21 9 23 32 62 51 87 29 37 34 51 29 76 -4 23 0 39 14
56 40 52 42 81 12 151 -15 35 -43 80 -62 100 -20 20 -48 60 -64 88 -37 68 -76
101 -120 101 -28 0 -37 5 -47 28 -6 15 -20 33 -29 40 -23 17 -23 34 1 81 11
21 17 48 14 60 -7 27 35 46 125 56 50 6 70 13 102 40 22 19 49 37 60 40 27 9
26 42 -4 97 -13 25 -27 58 -30 75 -4 17 -16 39 -27 49 -10 9 -19 30 -19 46 0
16 -7 42 -15 57 -13 26 -12 34 6 87 23 65 20 109 -13 162 -27 43 -21 113 16
183 14 28 26 59 26 69 0 10 9 20 20 23 12 3 20 14 20 27 0 17 4 20 18 15 9 -4
27 -10 39 -12 38 -9 40 50 5 137 -3 8 -6 64 -8 123 -2 121 2 127 70 127 l36 0
-19 48 c-10 26 -26 64 -35 85 -16 37 -16 39 3 44 11 3 27 16 36 30 13 19 22
23 40 19 31 -8 50 26 61 109 10 75 7 90 -21 140 -13 22 -28 63 -34 90 -18 91
-52 169 -90 210 -50 53 -69 111 -48 151 11 21 12 34 4 51 -7 16 -7 34 1 60 10
31 8 39 -8 61 -11 14 -20 35 -20 48 0 13 -9 41 -20 61 -11 21 -20 45 -20 53 0
8 -8 29 -18 45 -11 17 -22 48 -26 70 -10 50 -26 81 -71 135 -20 24 -42 58 -49
75 -8 18 -26 41 -41 51 -15 11 -44 34 -65 52 -21 17 -49 32 -62 32 -14 0 -31
7 -38 15 -7 8 -22 15 -34 15 -28 0 -39 9 -53 42 -10 21 -25 31 -75 45 -55 17
-65 24 -83 57 -26 50 -49 65 -72 48 -71 -50 -76 -52 -96 -35 -16 15 -24 15
-64 5 -39 -11 -48 -10 -63 3 -9 8 -21 15 -26 15 -17 0 -36 104 -24 134 20 53
12 75 -46 137 l-57 59 19 26 c11 15 23 32 28 39 15 21 -1 58 -52 115 -27 30
-47 61 -45 67 3 7 -5 25 -16 39 -12 15 -21 35 -21 45 0 10 -11 30 -25 45 -14
15 -25 36 -25 48 0 34 -10 42 -100 84 -95 44 -126 69 -146 118 -24 57 -79 71
-117 31 -14 -15 -38 -26 -65 -30 -24 -3 -46 -8 -49 -10 -2 -3 -8 -30 -12 -61
-4 -31 -10 -59 -14 -62 -3 -3 -41 -7 -84 -9 -56 -2 -85 2 -104 13 -25 14 -30
13 -80 -14 -44 -24 -55 -35 -60 -63 -10 -46 -28 -55 -57 -28 l-24 22 -26 -32
c-16 -19 -41 -34 -62 -38 -39 -8 -70 -31 -70 -52 0 -7 -3 -13 -6 -13 -16 0
-121 86 -139 114 -11 17 -29 32 -40 34 -26 5 -45 30 -45 61 0 14 -11 48 -24
74 -20 41 -22 54 -14 90 5 23 6 57 3 75 -8 41 8 62 46 62 25 0 29 4 29 28 0
17 -15 49 -36 78 -29 40 -34 55 -31 86 4 31 1 40 -20 53 -14 9 -31 32 -39 51
-15 35 -26 39 -73 25z"/>
<path d="M334 3606 c-3 -15 4 -44 21 -80 34 -72 56 -72 69 -2 10 48 9 49 -25
77 -42 35 -57 36 -65 5z"/>
</g>
</svg>
